<?xml version="1.0" encoding="utf-8"?>
<!-- Generator: Adobe Illustrator 22.1.0, SVG Export Plug-In . SVG Version: 6.00 Build 0)  -->
<svg version="1.1" id="Layer_1" xmlns="http://www.w3.org/2000/svg" xmlns:xlink="http://www.w3.org/1999/xlink" x="0px" y="0px"
	 viewBox="0 0 48.5 57.8" style="enable-background:new 0 0 48.5 57.8;" xml:space="preserve">
<style type="text/css">
	.st0{fill:none;stroke:#FFFFFF;stroke-miterlimit:10;}
</style>
<title>Asset 4</title>
<g id="Layer_2_1_">
	<g id="Layer_2-2">
		<path class="st0" d="M45.9,27.2l0.2-0.1L45,25.8c-0.3-0.4-0.6-0.8-1-1.1L24.6,1.5l-19,22c-1.1,0.9-2.1,2-2.9,3.3l0,0l0,0
			c-1.1,1.8-1.7,3.9-1.6,6.1c0,6.6,5.3,11.9,11.9,11.9c4.1,0,8-2.1,10.2-5.7v17.3h1.9V39.1c3.4,5.7,10.7,7.5,16.4,4.1
			C47.2,40,49.1,32.8,45.9,27.2z"/>
	</g>
</g>
</svg>
