<?xml version="1.0" encoding="utf-8"?>
<!-- Generator: Adobe Illustrator 22.1.0, SVG Export Plug-In . SVG Version: 6.00 Build 0)  -->
<svg version="1.1" id="Layer_1" xmlns="http://www.w3.org/2000/svg" xmlns:xlink="http://www.w3.org/1999/xlink" x="0px" y="0px"
	 width="91.5px" height="91.5px" viewBox="0 0 91.5 91.5" style="enable-background:new 0 0 91.5 91.5;" xml:space="preserve">
<style type="text/css">
	.st0{fill:#18326D;}
	.st1{fill:#FFFFFF;}
	.st2{fill:none;stroke:#FFFFFF;stroke-width:6.9364;stroke-miterlimit:10;}
</style>
<g>
	<g>
		
			<ellipse transform="matrix(0.1602 -0.9871 0.9871 0.1602 -6.7377 83.5812)" class="st0" cx="45.8" cy="45.8" rx="39.9" ry="39.9"/>
		<path class="st1" d="M45.8,9.3c20.1,0,36.4,16.3,36.4,36.4S65.8,82.2,45.8,82.2S9.3,65.8,9.3,45.8S25.7,9.3,45.8,9.3 M45.8,2.4
			C21.8,2.4,2.4,21.8,2.4,45.8s19.4,43.4,43.4,43.4s43.4-19.4,43.4-43.4S69.7,2.4,45.8,2.4L45.8,2.4z"/>
	</g>
	<polyline class="st2" points="26.4,54.6 45.8,35.2 65.1,54.6 	"/>
</g>
</svg>
