<?xml version="1.0" encoding="utf-8"?>
<!-- Generator: Adobe Illustrator 22.1.0, SVG Export Plug-In . SVG Version: 6.00 Build 0)  -->
<svg version="1.1" id="Layer_1" xmlns="http://www.w3.org/2000/svg" xmlns:xlink="http://www.w3.org/1999/xlink" x="0px" y="0px"
	 viewBox="0 0 57 53.8" style="enable-background:new 0 0 57 53.8;" xml:space="preserve">
<style type="text/css">
	.st0{fill:none;stroke:#FFFFFF;stroke-miterlimit:10;}
</style>
<title>Asset 5</title>
<g id="Layer_2_1_">
	<g id="Layer_2-2">
		<path class="st0" d="M52.8,22.6c3.8-6.4,1.8-14.7-4.7-18.6S33.4,2.2,29.6,8.7c-0.4,0.7-0.8,1.4-1.1,2.2
			C25.7,3.9,17.9,0.5,10.9,3.3S0.6,14,3.4,20.9c0.2,0.4,0.4,0.9,0.6,1.3l-0.2,0.1L5,23.8c0.3,0.4,0.7,0.9,1.1,1.3L28,51.3l21.5-24.9
			C50.8,25.3,51.9,24,52.8,22.6L52.8,22.6L52.8,22.6z"/>
	</g>
</g>
</svg>
